<?xml version="1.0" encoding="utf-8"?><svg xmlns="http://www.w3.org/2000/svg" xmlns:xlink="http://www.w3.org/1999/xlink" width="1366" height="682" preserveAspectRatio="xMidYMid" viewBox="0 0 1366 682" style="z-index:1;display:block;background-color:rgb(241, 242, 243);animation-play-state:paused" ><g transform="translate(683,341) scale(1,1) translate(-683,-341)" style="animation-play-state:paused" ><g id="bk-0.18182881928003924" style="animation-play-state:paused" ><path d="M616 263L723 275L620 173z" stroke="#d9d9d9" fill="#d9d9d9" style="animation-play-state:paused" ></path>
<path d="M723 275L722 138L620 173z" stroke="#cbcbcb" fill="#cbcbcb" style="animation-play-state:paused" ></path>
<path d="M723 275L838 152L722 138z" stroke="#d6d6d6" fill="#d6d6d6" style="animation-play-state:paused" ></path>
<path d="M616 263L606 347L723 275z" stroke="#f4f4f4" fill="#f4f4f4" style="animation-play-state:paused" ></path>
<path d="M723 275L826 370L804 266z" stroke="#f2f2f2" fill="#f2f2f2" style="animation-play-state:paused" ></path>
<path d="M606 347L716 363L723 275z" stroke="#f8f8f8" fill="#f8f8f8" style="animation-play-state:paused" ></path>
<path d="M620 173L515 260L616 263z" stroke="#c7c7c7" fill="#c7c7c7" style="animation-play-state:paused" ></path>
<path d="M616 263L515 260L606 347z" stroke="#e2e2e2" fill="#e2e2e2" style="animation-play-state:paused" ></path>
<path d="M700 68L640 59L722 138z" stroke="#949494" fill="#949494" style="animation-play-state:paused" ></path>
<path d="M722 138L640 59L620 173z" stroke="#a1a1a1" fill="#a1a1a1" style="animation-play-state:paused" ></path>
<path d="M620 173L505 152L515 260z" stroke="#aeaeae" fill="#aeaeae" style="animation-play-state:paused" ></path>
<path d="M804 266L838 152L723 275z" stroke="#f2f2f2" fill="#f2f2f2" style="animation-play-state:paused" ></path>
<path d="M807 51L700 68L722 138z" stroke="#9c9c9c" fill="#9c9c9c" style="animation-play-state:paused" ></path>
<path d="M516 85L505 152L620 173z" stroke="#929292" fill="#929292" style="animation-play-state:paused" ></path>
<path d="M716 363L826 370L723 275z" stroke="#ededed" fill="#ededed" style="animation-play-state:paused" ></path>
<path d="M804 266L933 167L838 152z" stroke="#ececec" fill="#ececec" style="animation-play-state:paused" ></path>
<path d="M416 271L532 349L515 260z" stroke="#cdcdcd" fill="#cdcdcd" style="animation-play-state:paused" ></path>
<path d="M515 260L532 349L606 347z" stroke="#e8e8e8" fill="#e8e8e8" style="animation-play-state:paused" ></path>
<path d="M606 347L709 454L716 363z" stroke="#eaeaea" fill="#eaeaea" style="animation-play-state:paused" ></path>
<path d="M640 59L516 85L620 173z" stroke="#8c8c8c" fill="#8c8c8c" style="animation-play-state:paused" ></path>
<path d="M613 -52L516 85L640 59z" stroke="#676767" fill="#676767" style="animation-play-state:paused" ></path>
<path d="M838 152L807 51L722 138z" stroke="#b2b2b2" fill="#b2b2b2" style="animation-play-state:paused" ></path>
<path d="M617 470L709 454L606 347z" stroke="#e7e7e7" fill="#e7e7e7" style="animation-play-state:paused" ></path>
<path d="M716 363L808 445L826 370z" stroke="#dbdbdb" fill="#dbdbdb" style="animation-play-state:paused" ></path>
<path d="M510 452L617 470L606 347z" stroke="#f0f0f0" fill="#f0f0f0" style="animation-play-state:paused" ></path>
<path d="M401 157L416 271L505 152z" stroke="#979797" fill="#979797" style="animation-play-state:paused" ></path>
<path d="M505 152L416 271L515 260z" stroke="#aeaeae" fill="#aeaeae" style="animation-play-state:paused" ></path>
<path d="M941 282L933 167L804 266z" stroke="#f9f9f9" fill="#f9f9f9" style="animation-play-state:paused" ></path>
<path d="M838 152L939 73L807 51z" stroke="#b2b2b2" fill="#b2b2b2" style="animation-play-state:paused" ></path>
<path d="M918 344L804 266L826 370z" stroke="#e4e4e4" fill="#e4e4e4" style="animation-play-state:paused" ></path>
<path d="M918 344L941 282L804 266z" stroke="#e8e8e8" fill="#e8e8e8" style="animation-play-state:paused" ></path>
<path d="M726 556L808 445L709 454z" stroke="#cccccc" fill="#cccccc" style="animation-play-state:paused" ></path>
<path d="M709 454L808 445L716 363z" stroke="#dadada" fill="#dadada" style="animation-play-state:paused" ></path>
<path d="M708 -40L613 -52L700 68z" stroke="#616161" fill="#616161" style="animation-play-state:paused" ></path>
<path d="M700 68L613 -52L640 59z" stroke="#6e6e6e" fill="#6e6e6e" style="animation-play-state:paused" ></path>
<path d="M824 -22L708 -40L700 68z" stroke="#707070" fill="#707070" style="animation-play-state:paused" ></path>
<path d="M427 73L505 152L516 85z" stroke="#767676" fill="#767676" style="animation-play-state:paused" ></path>
<path d="M427 73L401 157L505 152z" stroke="#7a7a7a" fill="#7a7a7a" style="animation-play-state:paused" ></path>
<path d="M930 468L918 344L826 370z" stroke="#cecece" fill="#cecece" style="animation-play-state:paused" ></path>
<path d="M439 384L510 452L532 349z" stroke="#f9f9f9" fill="#f9f9f9" style="animation-play-state:paused" ></path>
<path d="M532 349L510 452L606 347z" stroke="#fdfdfd" fill="#fdfdfd" style="animation-play-state:paused" ></path>
<path d="M416 271L439 384L532 349z" stroke="#d8d8d8" fill="#d8d8d8" style="animation-play-state:paused" ></path>
<path d="M516 -47L427 73L516 85z" stroke="#595959" fill="#595959" style="animation-play-state:paused" ></path>
<path d="M1017 137L939 73L933 167z" stroke="#d5d5d5" fill="#d5d5d5" style="animation-play-state:paused" ></path>
<path d="M933 167L939 73L838 152z" stroke="#cfcfcf" fill="#cfcfcf" style="animation-play-state:paused" ></path>
<path d="M807 51L824 -22L700 68z" stroke="#858585" fill="#858585" style="animation-play-state:paused" ></path>
<path d="M939 73L824 -22L807 51z" stroke="#919191" fill="#919191" style="animation-play-state:paused" ></path>
<path d="M633 -116L516 -47L613 -52z" stroke="#373737" fill="#373737" style="animation-play-state:paused" ></path>
<path d="M613 -52L516 -47L516 85z" stroke="#505050" fill="#505050" style="animation-play-state:paused" ></path>
<path d="M614 558L726 556L617 470z" stroke="#d2d2d2" fill="#d2d2d2" style="animation-play-state:paused" ></path>
<path d="M617 470L726 556L709 454z" stroke="#d3d3d3" fill="#d3d3d3" style="animation-play-state:paused" ></path>
<path d="M808 445L930 468L826 370z" stroke="#cacaca" fill="#cacaca" style="animation-play-state:paused" ></path>
<path d="M1018 273L1017 137L933 167z" stroke="#fefefe" fill="#fefefe" style="animation-play-state:paused" ></path>
<path d="M1018 273L933 167L941 282z" stroke="#f1f1f1" fill="#f1f1f1" style="animation-play-state:paused" ></path>
<path d="M816 552L930 468L808 445z" stroke="#bdbdbd" fill="#bdbdbd" style="animation-play-state:paused" ></path>
<path d="M1019 346L1018 273L941 282z" stroke="#dddddd" fill="#dddddd" style="animation-play-state:paused" ></path>
<path d="M518 572L614 558L617 470z" stroke="#dbdbdb" fill="#dbdbdb" style="animation-play-state:paused" ></path>
<path d="M401 157L342 280L416 271z" stroke="#9d9d9d" fill="#9d9d9d" style="animation-play-state:paused" ></path>
<path d="M416 271L342 280L439 384z" stroke="#bfbfbf" fill="#bfbfbf" style="animation-play-state:paused" ></path>
<path d="M439 384L406 462L510 452z" stroke="#fbfbfb" fill="#fbfbfb" style="animation-play-state:paused" ></path>
<path d="M332 148L342 280L401 157z" stroke="#868686" fill="#868686" style="animation-play-state:paused" ></path>
<path d="M329 345L406 462L439 384z" stroke="#dedede" fill="#dedede" style="animation-play-state:paused" ></path>
<path d="M510 452L518 572L617 470z" stroke="#e6e6e6" fill="#e6e6e6" style="animation-play-state:paused" ></path>
<path d="M1019 346L941 282L918 344z" stroke="#d9d9d9" fill="#d9d9d9" style="animation-play-state:paused" ></path>
<path d="M728 -150L633 -116L708 -40z" stroke="#363636" fill="#363636" style="animation-play-state:paused" ></path>
<path d="M708 -40L633 -116L613 -52z" stroke="#414141" fill="#414141" style="animation-play-state:paused" ></path>
<path d="M727 647L816 552L726 556z" stroke="#b9b9b9" fill="#b9b9b9" style="animation-play-state:paused" ></path>
<path d="M726 556L816 552L808 445z" stroke="#c0c0c0" fill="#c0c0c0" style="animation-play-state:paused" ></path>
<path d="M939 73L918 -48L824 -22z" stroke="#848484" fill="#848484" style="animation-play-state:paused" ></path>
<path d="M815 -159L728 -150L708 -40z" stroke="#373737" fill="#373737" style="animation-play-state:paused" ></path>
<path d="M1003 50L918 -48L939 73z" stroke="#999999" fill="#999999" style="animation-play-state:paused" ></path>
<path d="M930 468L1019 346L918 344z" stroke="#c9c9c9" fill="#c9c9c9" style="animation-play-state:paused" ></path>
<path d="M319 54L401 157L427 73z" stroke="#606060" fill="#606060" style="animation-play-state:paused" ></path>
<path d="M319 54L332 148L401 157z" stroke="#656565" fill="#656565" style="animation-play-state:paused" ></path>
<path d="M815 -159L708 -40L824 -22z" stroke="#4f4f4f" fill="#4f4f4f" style="animation-play-state:paused" ></path>
<path d="M1120 51L1003 50L1017 137z" stroke="#c5c5c5" fill="#c5c5c5" style="animation-play-state:paused" ></path>
<path d="M1017 137L1003 50L939 73z" stroke="#c1c1c1" fill="#c1c1c1" style="animation-play-state:paused" ></path>
<path d="M415 552L518 572L510 452z" stroke="#ececec" fill="#ececec" style="animation-play-state:paused" ></path>
<path d="M614 558L727 647L726 556z" stroke="#c3c3c3" fill="#c3c3c3" style="animation-play-state:paused" ></path>
<path d="M342 280L329 345L439 384z" stroke="#c1c1c1" fill="#c1c1c1" style="animation-play-state:paused" ></path>
<path d="M406 462L415 552L510 452z" stroke="#f8f8f8" fill="#f8f8f8" style="animation-play-state:paused" ></path>
<path d="M219 281L329 345L342 280z" stroke="#a2a2a2" fill="#a2a2a2" style="animation-play-state:paused" ></path>
<path d="M432 -135L394 -62L516 -47z" stroke="#282828" fill="#282828" style="animation-play-state:paused" ></path>
<path d="M516 -47L394 -62L427 73z" stroke="#3d3d3d" fill="#3d3d3d" style="animation-play-state:paused" ></path>
<path d="M339 -29L319 54L427 73z" stroke="#424242" fill="#424242" style="animation-play-state:paused" ></path>
<path d="M918 -48L815 -159L824 -22z" stroke="#565656" fill="#565656" style="animation-play-state:paused" ></path>
<path d="M927 -145L815 -159L918 -48z" stroke="#454545" fill="#454545" style="animation-play-state:paused" ></path>
<path d="M816 552L912 538L930 468z" stroke="#b2b2b2" fill="#b2b2b2" style="animation-play-state:paused" ></path>
<path d="M930 468L1014 458L1019 346z" stroke="#bbbbbb" fill="#bbbbbb" style="animation-play-state:paused" ></path>
<path d="M832 655L912 538L816 552z" stroke="#ababab" fill="#ababab" style="animation-play-state:paused" ></path>
<path d="M728 -150L500 -135L633 -116z" stroke="#282828" fill="#282828" style="animation-play-state:paused" ></path>
<path d="M633 -116L500 -135L516 -47z" stroke="#292929" fill="#292929" style="animation-play-state:paused" ></path>
<path d="M815 -159L500 -135L728 -150z" stroke="#282828" fill="#282828" style="animation-play-state:paused" ></path>
<path d="M319 563L415 552L406 462z" stroke="#fdfdfd" fill="#fdfdfd" style="animation-play-state:paused" ></path>
<path d="M1012 565L1014 458L930 468z" stroke="#aaaaaa" fill="#aaaaaa" style="animation-play-state:paused" ></path>
<path d="M1142 253L1121 161L1018 273z" stroke="#eaeaea" fill="#eaeaea" style="animation-play-state:paused" ></path>
<path d="M315 -133L339 -29L394 -62z" stroke="#262626" fill="#262626" style="animation-play-state:paused" ></path>
<path d="M394 -62L339 -29L427 73z" stroke="#363636" fill="#363636" style="animation-play-state:paused" ></path>
<path d="M329 345L310 449L406 462z" stroke="#d9d9d9" fill="#d9d9d9" style="animation-play-state:paused" ></path>
<path d="M500 -135L432 -135L516 -47z" stroke="#272727" fill="#272727" style="animation-play-state:paused" ></path>
<path d="M1120 51L1030 -50L1003 50z" stroke="#a0a0a0" fill="#a0a0a0" style="animation-play-state:paused" ></path>
<path d="M1003 50L1030 -50L918 -48z" stroke="#868686" fill="#868686" style="animation-play-state:paused" ></path>
<path d="M1121 161L1017 137L1018 273z" stroke="#fafafa" fill="#fafafa" style="animation-play-state:paused" ></path>
<path d="M1030 -50L927 -145L918 -48z" stroke="#5f5f5f" fill="#5f5f5f" style="animation-play-state:paused" ></path>
<path d="M617 659L614 558L518 572z" stroke="#d2d2d2" fill="#d2d2d2" style="animation-play-state:paused" ></path>
<path d="M617 659L727 647L614 558z" stroke="#c4c4c4" fill="#c4c4c4" style="animation-play-state:paused" ></path>
<path d="M1094 345L1018 273L1019 346z" stroke="#d2d2d2" fill="#d2d2d2" style="animation-play-state:paused" ></path>
<path d="M517 651L617 659L518 572z" stroke="#d4d4d4" fill="#d4d4d4" style="animation-play-state:paused" ></path>
<path d="M225 158L219 281L332 148z" stroke="#707070" fill="#707070" style="animation-play-state:paused" ></path>
<path d="M332 148L219 281L342 280z" stroke="#898989" fill="#898989" style="animation-play-state:paused" ></path>
<path d="M329 345L234 470L310 449z" stroke="#cacaca" fill="#cacaca" style="animation-play-state:paused" ></path>
<path d="M225 158L332 148L319 54z" stroke="#595959" fill="#595959" style="animation-play-state:paused" ></path>
<path d="M1114 463L1094 345L1019 346z" stroke="#bdbdbd" fill="#bdbdbd" style="animation-play-state:paused" ></path>
<path d="M1094 345L1142 253L1018 273z" stroke="#d7d7d7" fill="#d7d7d7" style="animation-play-state:paused" ></path>
<path d="M220 40L225 158L319 54z" stroke="#444444" fill="#444444" style="animation-play-state:paused" ></path>
<path d="M410 654L517 651L415 552z" stroke="#e6e6e6" fill="#e6e6e6" style="animation-play-state:paused" ></path>
<path d="M415 552L517 651L518 572z" stroke="#e3e3e3" fill="#e3e3e3" style="animation-play-state:paused" ></path>
<path d="M736 756L832 655L727 647z" stroke="#acacac" fill="#acacac" style="animation-play-state:paused" ></path>
<path d="M727 647L832 655L816 552z" stroke="#afafaf" fill="#afafaf" style="animation-play-state:paused" ></path>
<path d="M912 538L1012 565L930 468z" stroke="#a9a9a9" fill="#a9a9a9" style="animation-play-state:paused" ></path>
<path d="M1015 660L1012 565L912 538z" stroke="#999999" fill="#999999" style="animation-play-state:paused" ></path>
<path d="M1014 458L1114 463L1019 346z" stroke="#b5b5b5" fill="#b5b5b5" style="animation-play-state:paused" ></path>
<path d="M1217 161L1120 51L1121 161z" stroke="#eeeeee" fill="#eeeeee" style="animation-play-state:paused" ></path>
<path d="M1121 161L1120 51L1017 137z" stroke="#e0e0e0" fill="#e0e0e0" style="animation-play-state:paused" ></path>
<path d="M1030 -50L1039 -130L927 -145z" stroke="#555555" fill="#555555" style="animation-play-state:paused" ></path>
<path d="M107 258L218 354L219 281z" stroke="#848484" fill="#848484" style="animation-play-state:paused" ></path>
<path d="M219 281L218 354L329 345z" stroke="#a1a1a1" fill="#a1a1a1" style="animation-play-state:paused" ></path>
<path d="M310 449L319 563L406 462z" stroke="#efefef" fill="#efefef" style="animation-play-state:paused" ></path>
<path d="M1135 569L1114 463L1014 458z" stroke="#9e9e9e" fill="#9e9e9e" style="animation-play-state:paused" ></path>
<path d="M1227 278L1217 161L1142 253z" stroke="#e2e2e2" fill="#e2e2e2" style="animation-play-state:paused" ></path>
<path d="M234 470L319 563L310 449z" stroke="#dfdfdf" fill="#dfdfdf" style="animation-play-state:paused" ></path>
<path d="M239 -29L220 40L319 54z" stroke="#2d2d2d" fill="#2d2d2d" style="animation-play-state:paused" ></path>
<path d="M225 158L107 258L219 281z" stroke="#6e6e6e" fill="#6e6e6e" style="animation-play-state:paused" ></path>
<path d="M239 -29L319 54L339 -29z" stroke="#2a2a2a" fill="#2a2a2a" style="animation-play-state:paused" ></path>
<path d="M500 -135L315 -133L432 -135z" stroke="#232323" fill="#232323" style="animation-play-state:paused" ></path>
<path d="M432 -135L315 -133L394 -62z" stroke="#242424" fill="#242424" style="animation-play-state:paused" ></path>
<path d="M832 655L922 641L912 538z" stroke="#a2a2a2" fill="#a2a2a2" style="animation-play-state:paused" ></path>
<path d="M1124 -45L1039 -130L1030 -50z" stroke="#6d6d6d" fill="#6d6d6d" style="animation-play-state:paused" ></path>
<path d="M927 -145L1100 -154L815 -159z" stroke="#393939" fill="#393939" style="animation-play-state:paused" ></path>
<path d="M319 563L410 654L415 552z" stroke="#f4f4f4" fill="#f4f4f4" style="animation-play-state:paused" ></path>
<path d="M613 770L736 756L617 659z" stroke="#bbbbbb" fill="#bbbbbb" style="animation-play-state:paused" ></path>
<path d="M218 354L234 470L329 345z" stroke="#b8b8b8" fill="#b8b8b8" style="animation-play-state:paused" ></path>
<path d="M319 563L323 653L410 654z" stroke="#f6f6f6" fill="#f6f6f6" style="animation-play-state:paused" ></path>
<path d="M315 -133L239 -29L339 -29z" stroke="#252525" fill="#252525" style="animation-play-state:paused" ></path>
<path d="M1120 51L1124 -45L1030 -50z" stroke="#929292" fill="#929292" style="animation-play-state:paused" ></path>
<path d="M922 641L1015 660L912 538z" stroke="#999999" fill="#999999" style="animation-play-state:paused" ></path>
<path d="M1012 565L1135 569L1014 458z" stroke="#9a9a9a" fill="#9a9a9a" style="animation-play-state:paused" ></path>
<path d="M1227 278L1142 253L1230 369z" stroke="#cbcbcb" fill="#cbcbcb" style="animation-play-state:paused" ></path>
<path d="M1142 253L1217 161L1121 161z" stroke="#f1f1f1" fill="#f1f1f1" style="animation-play-state:paused" ></path>
<path d="M1120 51L1208 -50L1124 -45z" stroke="#989898" fill="#989898" style="animation-play-state:paused" ></path>
<path d="M617 659L736 756L727 647z" stroke="#b7b7b7" fill="#b7b7b7" style="animation-play-state:paused" ></path>
<path d="M832 655L916 765L922 641z" stroke="#989898" fill="#989898" style="animation-play-state:paused" ></path>
<path d="M922 641L995 745L1015 660z" stroke="#8c8c8c" fill="#8c8c8c" style="animation-play-state:paused" ></path>
<path d="M613 770L617 659L511 764z" stroke="#c7c7c7" fill="#c7c7c7" style="animation-play-state:paused" ></path>
<path d="M511 764L617 659L517 651z" stroke="#cfcfcf" fill="#cfcfcf" style="animation-play-state:paused" ></path>
<path d="M1230 369L1142 253L1094 345z" stroke="#c8c8c8" fill="#c8c8c8" style="animation-play-state:paused" ></path>
<path d="M1230 369L1094 345L1114 463z" stroke="#b4b4b4" fill="#b4b4b4" style="animation-play-state:paused" ></path>
<path d="M736 756L825 769L832 655z" stroke="#a4a4a4" fill="#a4a4a4" style="animation-play-state:paused" ></path>
<path d="M1224 463L1230 369L1114 463z" stroke="#a5a5a5" fill="#a5a5a5" style="animation-play-state:paused" ></path>
<path d="M422 761L517 651L410 654z" stroke="#e0e0e0" fill="#e0e0e0" style="animation-play-state:paused" ></path>
<path d="M422 761L511 764L517 651z" stroke="#d8d8d8" fill="#d8d8d8" style="animation-play-state:paused" ></path>
<path d="M108 138L107 258L225 158z" stroke="#545454" fill="#545454" style="animation-play-state:paused" ></path>
<path d="M218 354L132 365L234 470z" stroke="#a8a8a8" fill="#a8a8a8" style="animation-play-state:paused" ></path>
<path d="M108 138L225 158L220 40z" stroke="#414141" fill="#414141" style="animation-play-state:paused" ></path>
<path d="M1015 660L1135 569L1012 565z" stroke="#8d8d8d" fill="#8d8d8d" style="animation-play-state:paused" ></path>
<path d="M227 553L323 653L319 563z" stroke="#f7f7f7" fill="#f7f7f7" style="animation-play-state:paused" ></path>
<path d="M227 553L319 563L234 470z" stroke="#e0e0e0" fill="#e0e0e0" style="animation-play-state:paused" ></path>
<path d="M126 559L227 553L234 470z" stroke="#cccccc" fill="#cccccc" style="animation-play-state:paused" ></path>
<path d="M107 258L132 365L218 354z" stroke="#868686" fill="#868686" style="animation-play-state:paused" ></path>
<path d="M99 58L108 138L220 40z" stroke="#2e2e2e" fill="#2e2e2e" style="animation-play-state:paused" ></path>
<path d="M1124 -45L1100 -154L1039 -130z" stroke="#5c5c5c" fill="#5c5c5c" style="animation-play-state:paused" ></path>
<path d="M1039 -130L1100 -154L927 -145z" stroke="#454545" fill="#454545" style="animation-play-state:paused" ></path>
<path d="M1208 -142L1100 -154L1124 -45z" stroke="#5f5f5f" fill="#5f5f5f" style="animation-play-state:paused" ></path>
<path d="M1328 159L1226 75L1217 161z" stroke="#fefefe" fill="#fefefe" style="animation-play-state:paused" ></path>
<path d="M1217 161L1226 75L1120 51z" stroke="#e0e0e0" fill="#e0e0e0" style="animation-play-state:paused" ></path>
<path d="M825 769L916 765L832 655z" stroke="#9a9a9a" fill="#9a9a9a" style="animation-play-state:paused" ></path>
<path d="M1015 660L1122 651L1135 569z" stroke="#fc2525" fill="#fc2525" style="animation-play-state:paused" ></path>
<path d="M107 -46L99 58L220 40z" stroke="#262626" fill="#262626" style="animation-play-state:paused" ></path>
<path d="M107 -46L220 40L239 -29z" stroke="#262626" fill="#262626" style="animation-play-state:paused" ></path>
<path d="M500 -135L227 -159L315 -133z" stroke="#212121" fill="#212121" style="animation-play-state:paused" ></path>
<path d="M315 -133L227 -159L239 -29z" stroke="#222222" fill="#222222" style="animation-play-state:paused" ></path>
<path d="M323 653L422 761L410 654z" stroke="#ebebeb" fill="#ebebeb" style="animation-play-state:paused" ></path>
<path d="M511 764L422 761L613 770z" stroke="#d1d1d1" fill="#d1d1d1" style="animation-play-state:paused" ></path>
<path d="M613 770L422 761L736 756z" stroke="#c4c4c4" fill="#c4c4c4" style="animation-play-state:paused" ></path>
<path d="M1226 75L1208 -50L1120 51z" stroke="#b3b3b3" fill="#b3b3b3" style="animation-play-state:paused" ></path>
<path d="M1135 569L1224 463L1114 463z" stroke="#969696" fill="#969696" style="animation-play-state:paused" ></path>
<path d="M1308 256L1328 159L1227 278z" stroke="#dcdcdc" fill="#dcdcdc" style="animation-play-state:paused" ></path>
<path d="M1227 278L1328 159L1217 161z" stroke="#e8e8e8" fill="#e8e8e8" style="animation-play-state:paused" ></path>
<path d="M1236 579L1224 463L1135 569z" stroke="#888888" fill="#888888" style="animation-play-state:paused" ></path>
<path d="M132 365L109 434L234 470z" stroke="#a6a6a6" fill="#a6a6a6" style="animation-play-state:paused" ></path>
<path d="M34 357L109 434L132 365z" stroke="#898989" fill="#898989" style="animation-play-state:paused" ></path>
<path d="M34 357L132 365L107 258z" stroke="#787878" fill="#787878" style="animation-play-state:paused" ></path>
<path d="M121 -115L107 -46L239 -29z" stroke="#222222" fill="#222222" style="animation-play-state:paused" ></path>
<path d="M1106 744L995 745L916 765z" stroke="#fb2525" fill="#fb2525" style="animation-play-state:paused" ></path>
<path d="M916 765L995 745L922 641z" stroke="#8d8d8d" fill="#8d8d8d" style="animation-play-state:paused" ></path>
<path d="M995 745L1122 651L1015 660z" stroke="#fb2524" fill="#fb2524" style="animation-play-state:paused" ></path>
<path d="M126 559L213 666L227 553z" stroke="#d8d8d8" fill="#d8d8d8" style="animation-play-state:paused" ></path>
<path d="M227 553L213 666L323 653z" stroke="#f2f2f2" fill="#f2f2f2" style="animation-play-state:paused" ></path>
<path d="M323 653L315 758L422 761z" stroke="#eeeeee" fill="#eeeeee" style="animation-play-state:paused" ></path>
<path d="M1305 348L1227 278L1230 369z" stroke="#bdbdbd" fill="#bdbdbd" style="animation-play-state:paused" ></path>
<path d="M1226 75L1338 -23L1208 -50z" stroke="#aaaaaa" fill="#aaaaaa" style="animation-play-state:paused" ></path>
<path d="M227 -159L121 -115L239 -29z" stroke="#202020" fill="#202020" style="animation-play-state:paused" ></path>
<path d="M1340 471L1305 348L1224 463z" stroke="#9e9e9e" fill="#9e9e9e" style="animation-play-state:paused" ></path>
<path d="M1224 463L1305 348L1230 369z" stroke="#ababab" fill="#ababab" style="animation-play-state:paused" ></path>
<path d="M213 666L315 758L323 653z" stroke="#fcfcfc" fill="#fcfcfc" style="animation-play-state:paused" ></path>
<path d="M109 434L126 559L234 470z" stroke="#b7b7b7" fill="#b7b7b7" style="animation-play-state:paused" ></path>
<path d="M1305 348L1308 256L1227 278z" stroke="#c8c8c8" fill="#c8c8c8" style="animation-play-state:paused" ></path>
<path d="M1320 -140L1208 -142L1208 -50z" stroke="#686868" fill="#686868" style="animation-play-state:paused" ></path>
<path d="M1208 -50L1208 -142L1124 -45z" stroke="#757575" fill="#757575" style="animation-play-state:paused" ></path>
<path d="M1122 651L1236 579L1135 569z" stroke="#f82423" fill="#f82423" style="animation-play-state:paused" ></path>
<path d="M24 49L4 164L108 138z" stroke="#292929" fill="#292929" style="animation-play-state:paused" ></path>
<path d="M108 138L4 164L107 258z" stroke="#464646" fill="#464646" style="animation-play-state:paused" ></path>
<path d="M109 434L20 476L126 559z" stroke="#a3a3a3" fill="#a3a3a3" style="animation-play-state:paused" ></path>
<path d="M24 49L108 138L99 58z" stroke="#282828" fill="#282828" style="animation-play-state:paused" ></path>
<path d="M24 49L99 58L107 -46z" stroke="#252525" fill="#252525" style="animation-play-state:paused" ></path>
<path d="M4 164L-2 235L107 258z" stroke="#494949" fill="#494949" style="animation-play-state:paused" ></path>
<path d="M-2 235L34 357L107 258z" stroke="#5f5f5f" fill="#5f5f5f" style="animation-play-state:paused" ></path>
<path d="M1328 159L1339 75L1226 75z" stroke="#efefef" fill="#efefef" style="animation-play-state:paused" ></path>
<path d="M1407 167L1339 75L1328 159z" stroke="#fafafa" fill="#fafafa" style="animation-play-state:paused" ></path>
<path d="M2 -68L24 49L107 -46z" stroke="#212121" fill="#212121" style="animation-play-state:paused" ></path>
<path d="M4 164L-58 158L-2 235z" stroke="#333333" fill="#333333" style="animation-play-state:paused" ></path>
<path d="M995 745L1106 744L1122 651z" stroke="#f42322" fill="#f42322" style="animation-play-state:paused" ></path>
<path d="M1122 651L1221 664L1236 579z" stroke="#ee2120" fill="#ee2120" style="animation-play-state:paused" ></path>
<path d="M1228 759L1106 744L916 765z" stroke="#ef2120" fill="#ef2120" style="animation-play-state:paused" ></path>
<path d="M1228 759L916 765L825 769z" stroke="#fd2525" fill="#fd2525" style="animation-play-state:paused" ></path>
<path d="M2 562L20 476L-81 452z" stroke="#878787" fill="#878787" style="animation-play-state:paused" ></path>
<path d="M34 357L20 476L109 434z" stroke="#8a8a8a" fill="#8a8a8a" style="animation-play-state:paused" ></path>
<path d="M93 757L206 746L213 666z" stroke="#e3e3e3" fill="#e3e3e3" style="animation-play-state:paused" ></path>
<path d="M1322 544L1224 463L1236 579z" stroke="#fd2525" fill="#fd2525" style="animation-play-state:paused" ></path>
<path d="M1322 544L1340 471L1224 463z" stroke="#8b8b8b" fill="#8b8b8b" style="animation-play-state:paused" ></path>
<path d="M1415 356L1399 247L1308 256z" stroke="#c5c5c5" fill="#c5c5c5" style="animation-play-state:paused" ></path>
<path d="M1308 256L1399 247L1328 159z" stroke="#dcdcdc" fill="#dcdcdc" style="animation-play-state:paused" ></path>
<path d="M1443 78L1338 -23L1339 75z" stroke="#cecece" fill="#cecece" style="animation-play-state:paused" ></path>
<path d="M1339 75L1338 -23L1226 75z" stroke="#c8c8c8" fill="#c8c8c8" style="animation-play-state:paused" ></path>
<path d="M213 666L206 746L315 758z" stroke="#fbfbfb" fill="#fbfbfb" style="animation-play-state:paused" ></path>
<path d="M315 758L206 746L422 761z" stroke="#f4f4f4" fill="#f4f4f4" style="animation-play-state:paused" ></path>
<path d="M109 640L213 666L126 559z" stroke="#d0d0d0" fill="#d0d0d0" style="animation-play-state:paused" ></path>
<path d="M1106 744L1221 664L1122 651z" stroke="#ec201f" fill="#ec201f" style="animation-play-state:paused" ></path>
<path d="M2 562L109 640L126 559z" stroke="#b5b5b5" fill="#b5b5b5" style="animation-play-state:paused" ></path>
<path d="M121 -115L2 -68L107 -46z" stroke="#1f1f1f" fill="#1f1f1f" style="animation-play-state:paused" ></path>
<path d="M-85 81L-58 158L4 164z" stroke="#272727" fill="#272727" style="animation-play-state:paused" ></path>
<path d="M1304 649L1322 544L1236 579z" stroke="#ec201f" fill="#ec201f" style="animation-play-state:paused" ></path>
<path d="M1415 356L1305 348L1340 471z" stroke="#a4a4a4" fill="#a4a4a4" style="animation-play-state:paused" ></path>
<path d="M1415 356L1308 256L1305 348z" stroke="#bcbcbc" fill="#bcbcbc" style="animation-play-state:paused" ></path>
<path d="M-81 452L20 476L34 357z" stroke="#7a7a7a" fill="#7a7a7a" style="animation-play-state:paused" ></path>
<path d="M20 476L2 562L126 559z" stroke="#a2a2a2" fill="#a2a2a2" style="animation-play-state:paused" ></path>
<path d="M109 640L93 757L213 666z" stroke="#d5d5d5" fill="#d5d5d5" style="animation-play-state:paused" ></path>
<path d="M1407 -37L1320 -140L1338 -23z" stroke="#888888" fill="#888888" style="animation-play-state:paused" ></path>
<path d="M1338 -23L1320 -140L1208 -50z" stroke="#818181" fill="#818181" style="animation-play-state:paused" ></path>
<path d="M-85 81L4 164L24 49z" stroke="#262626" fill="#262626" style="animation-play-state:paused" ></path>
<path d="M-2 235L-62 266L34 357z" stroke="#535353" fill="#535353" style="animation-play-state:paused" ></path>
<path d="M-58 158L-62 266L-2 235z" stroke="#383838" fill="#383838" style="animation-play-state:paused" ></path>
<path d="M1399 247L1407 167L1328 159z" stroke="#e5e5e5" fill="#e5e5e5" style="animation-play-state:paused" ></path>
<path d="M1408 471L1415 356L1340 471z" stroke="#959595" fill="#959595" style="animation-play-state:paused" ></path>
<path d="M1399 247L1524 244L1407 167z" stroke="#d9d9d9" fill="#d9d9d9" style="animation-play-state:paused" ></path>
<path d="M-87 -44L-85 81L24 49z" stroke="#212121" fill="#212121" style="animation-play-state:paused" ></path>
<path d="M-160 267L-63 366L-62 266z" stroke="#434343" fill="#434343" style="animation-play-state:paused" ></path>
<path d="M1228 759L1304 649L1221 664z" stroke="#dd1b1a" fill="#dd1b1a" style="animation-play-state:paused" ></path>
<path d="M1221 664L1304 649L1236 579z" stroke="#e71f1d" fill="#e71f1d" style="animation-play-state:paused" ></path>
<path d="M1415 551L1408 471L1340 471z" stroke="#fb2525" fill="#fb2525" style="animation-play-state:paused" ></path>
<path d="M-160 267L-62 266L-58 158z" stroke="#313131" fill="#313131" style="animation-play-state:paused" ></path>
<path d="M-62 266L-63 366L34 357z" stroke="#5b5b5b" fill="#5b5b5b" style="animation-play-state:paused" ></path>
<path d="M121 -115L8 -141L2 -68z" stroke="#1c1c1c" fill="#1c1c1c" style="animation-play-state:paused" ></path>
<path d="M2 -68L-87 -44L24 49z" stroke="#202020" fill="#202020" style="animation-play-state:paused" ></path>
<path d="M227 -159L8 -141L121 -115z" stroke="#1c1c1c" fill="#1c1c1c" style="animation-play-state:paused" ></path>
<path d="M500 -135L8 -141L227 -159z" stroke="#1f1f1f" fill="#1f1f1f" style="animation-play-state:paused" ></path>
<path d="M815 -159L8 -141L500 -135z" stroke="#232323" fill="#232323" style="animation-play-state:paused" ></path>
<path d="M1407 167L1443 78L1339 75z" stroke="#f9f9f9" fill="#f9f9f9" style="animation-play-state:paused" ></path>
<path d="M1530 152L1443 78L1407 167z" stroke="#f7f7f7" fill="#f7f7f7" style="animation-play-state:paused" ></path>
<path d="M736 756L1228 759L825 769z" stroke="#8d8d8d" fill="#8d8d8d" style="animation-play-state:paused" ></path>
<path d="M1106 744L1228 759L1221 664z" stroke="#e31d1c" fill="#e31d1c" style="animation-play-state:paused" ></path>
<path d="M1340 767L1228 759L736 756z" stroke="#ec201f" fill="#ec201f" style="animation-play-state:paused" ></path>
<path d="M5 654L93 757L109 640z" stroke="#bfbfbf" fill="#bfbfbf" style="animation-play-state:paused" ></path>
<path d="M1415 551L1340 471L1322 544z" stroke="#f72323" fill="#f72323" style="animation-play-state:paused" ></path>
<path d="M1415 356L1524 244L1399 247z" stroke="#c3c3c3" fill="#c3c3c3" style="animation-play-state:paused" ></path>
<path d="M-74 563L5 654L2 562z" stroke="#989898" fill="#989898" style="animation-play-state:paused" ></path>
<path d="M2 562L5 654L109 640z" stroke="#aeaeae" fill="#aeaeae" style="animation-play-state:paused" ></path>
<path d="M-63 366L-81 452L34 357z" stroke="#6a6a6a" fill="#6a6a6a" style="animation-play-state:paused" ></path>
<path d="M1443 78L1407 -37L1338 -23z" stroke="#b7b7b7" fill="#b7b7b7" style="animation-play-state:paused" ></path>
<path d="M-90 -142L-87 -44L2 -68z" stroke="#1b1b1b" fill="#1b1b1b" style="animation-play-state:paused" ></path>
<path d="M-189 154L-160 267L-58 158z" stroke="#272727" fill="#272727" style="animation-play-state:paused" ></path>
<path d="M-81 452L-74 563L2 562z" stroke="#848484" fill="#848484" style="animation-play-state:paused" ></path>
<path d="M5 654L27 747L93 757z" stroke="#b9b9b9" fill="#b9b9b9" style="animation-play-state:paused" ></path>
<path d="M1417 655L1415 551L1322 544z" stroke="#e41e1c" fill="#e41e1c" style="animation-play-state:paused" ></path>
<path d="M1514 353L1524 244L1415 356z" stroke="#b6b6b6" fill="#b6b6b6" style="animation-play-state:paused" ></path>
<path d="M1417 655L1322 544L1304 649z" stroke="#e01c1b" fill="#e01c1b" style="animation-play-state:paused" ></path>
<path d="M1505 -157L1404 -139L1407 -37z" stroke="#727272" fill="#727272" style="animation-play-state:paused" ></path>
<path d="M1407 -37L1404 -139L1320 -140z" stroke="#727272" fill="#727272" style="animation-play-state:paused" ></path>
<path d="M1320 -140L1404 -139L1208 -142z" stroke="#5b5b5b" fill="#5b5b5b" style="animation-play-state:paused" ></path>
<path d="M1208 -142L1404 -139L1100 -154z" stroke="#545454" fill="#545454" style="animation-play-state:paused" ></path>
<path d="M1100 -154L1505 -157L815 -159z" stroke="#474747" fill="#474747" style="animation-play-state:paused" ></path>
<path d="M8 -141L-90 -142L2 -68z" stroke="#1a1a1a" fill="#1a1a1a" style="animation-play-state:paused" ></path>
<path d="M-189 154L-58 158L-85 81z" stroke="#252525" fill="#252525" style="animation-play-state:paused" ></path>
<path d="M1514 353L1415 356L1517 456z" stroke="#9f9f9f" fill="#9f9f9f" style="animation-play-state:paused" ></path>
<path d="M1443 78L1517 52L1407 -37z" stroke="#cbcbcb" fill="#cbcbcb" style="animation-play-state:paused" ></path>
<path d="M1524 244L1530 152L1407 167z" stroke="#e2e2e2" fill="#e2e2e2" style="animation-play-state:paused" ></path>
<path d="M-63 366L-168 378L-81 452z" stroke="#5b5b5b" fill="#5b5b5b" style="animation-play-state:paused" ></path>
<path d="M-81 452L-205 535L-74 563z" stroke="#707070" fill="#707070" style="animation-play-state:paused" ></path>
<path d="M-189 154L-85 81L-190 75z" stroke="#222222" fill="#222222" style="animation-play-state:paused" ></path>
<path d="M-72 677L27 747L5 654z" stroke="#a7a7a7" fill="#a7a7a7" style="animation-play-state:paused" ></path>
<path d="M93 757L27 747L206 746z" stroke="#d0d0d0" fill="#d0d0d0" style="animation-play-state:paused" ></path>
<path d="M206 746L-58 762L422 761z" stroke="#ebebeb" fill="#ebebeb" style="animation-play-state:paused" ></path>
<path d="M1340 767L1417 655L1304 649z" stroke="#d01715" fill="#d01715" style="animation-play-state:paused" ></path>
<path d="M1517 456L1415 356L1408 471z" stroke="#949494" fill="#949494" style="animation-play-state:paused" ></path>
<path d="M1517 456L1408 471L1415 551z" stroke="#f92424" fill="#f92424" style="animation-play-state:paused" ></path>
<path d="M1524 244L1616 269L1530 152z" stroke="#d5d5d5" fill="#d5d5d5" style="animation-play-state:paused" ></path>
<path d="M422 761L1340 767L736 756z" stroke="#9d9d9d" fill="#9d9d9d" style="animation-play-state:paused" ></path>
<path d="M1228 759L1340 767L1304 649z" stroke="#d41816" fill="#d41816" style="animation-play-state:paused" ></path>
<path d="M-190 75L-85 81L-87 -44z" stroke="#202020" fill="#202020" style="animation-play-state:paused" ></path>
<path d="M1523 -41L1517 52L1617 57z" stroke="#c9c9c9" fill="#c9c9c9" style="animation-play-state:paused" ></path>
<path d="M1530 152L1517 52L1443 78z" stroke="#f6f6f6" fill="#f6f6f6" style="animation-play-state:paused" ></path>
<path d="M-274 343L-168 378L-160 267z" stroke="#333333" fill="#333333" style="animation-play-state:paused" ></path>
<path d="M-160 267L-168 378L-63 366z" stroke="#454545" fill="#454545" style="animation-play-state:paused" ></path>
<path d="M-74 563L-72 677L5 654z" stroke="#969696" fill="#969696" style="animation-play-state:paused" ></path>
<path d="M1536 576L1517 456L1415 551z" stroke="#ec201f" fill="#ec201f" style="animation-play-state:paused" ></path>
<path d="M-172 -57L-190 75L-87 -44z" stroke="#1d1d1d" fill="#1d1d1d" style="animation-play-state:paused" ></path>
<path d="M-205 645L-72 677L-74 563z" stroke="#818181" fill="#818181" style="animation-play-state:paused" ></path>
<path d="M-283 452L-184 463L-168 378z" stroke="#474747" fill="#474747" style="animation-play-state:paused" ></path>
<path d="M-168 378L-184 463L-81 452z" stroke="#585858" fill="#585858" style="animation-play-state:paused" ></path>
<path d="M1617 57L1517 52L1530 152z" stroke="#f4f4f4" fill="#f4f4f4" style="animation-play-state:paused" ></path>
<path d="M1517 52L1523 -41L1407 -37z" stroke="#b2b2b2" fill="#b2b2b2" style="animation-play-state:paused" ></path>
<path d="M-280 154L-275 255L-189 154z" stroke="#232323" fill="#232323" style="animation-play-state:paused" ></path>
<path d="M-283 452L-205 535L-184 463z" stroke="#4e4e4e" fill="#4e4e4e" style="animation-play-state:paused" ></path>
<path d="M-172 -130L-172 -57L-87 -44z" stroke="#191919" fill="#191919" style="animation-play-state:paused" ></path>
<path d="M1523 -41L1505 -157L1407 -37z" stroke="#878787" fill="#878787" style="animation-play-state:paused" ></path>
<path d="M1404 -139L1505 -157L1100 -154z" stroke="#575757" fill="#575757" style="animation-play-state:paused" ></path>
<path d="M-288 -163L-172 -130L-90 -142z" stroke="#141414" fill="#141414" style="animation-play-state:paused" ></path>
<path d="M-90 -142L-172 -130L-87 -44z" stroke="#181818" fill="#181818" style="animation-play-state:paused" ></path>
<path d="M1638 365L1616 269L1514 353z" stroke="#afafaf" fill="#afafaf" style="animation-play-state:paused" ></path>
<path d="M1514 353L1616 269L1524 244z" stroke="#bebebe" fill="#bebebe" style="animation-play-state:paused" ></path>
<path d="M1417 655L1536 576L1415 551z" stroke="#dc1b19" fill="#dc1b19" style="animation-play-state:paused" ></path>
<path d="M1541 666L1536 576L1417 655z" stroke="#ce1615" fill="#ce1615" style="animation-play-state:paused" ></path>
<path d="M-192 763L-58 762L-72 677z" stroke="#8d8d8d" fill="#8d8d8d" style="animation-play-state:paused" ></path>
<path d="M-72 677L-58 762L27 747z" stroke="#a3a3a3" fill="#a3a3a3" style="animation-play-state:paused" ></path>
<path d="M27 747L-58 762L206 746z" stroke="#c0c0c0" fill="#c0c0c0" style="animation-play-state:paused" ></path>
<path d="M422 761L1447 775L1340 767z" stroke="#f12221" fill="#f12221" style="animation-play-state:paused" ></path>
<path d="M-184 463L-205 535L-81 452z" stroke="#606060" fill="#606060" style="animation-play-state:paused" ></path>
<path d="M-275 255L-160 267L-189 154z" stroke="#262626" fill="#262626" style="animation-play-state:paused" ></path>
<path d="M-58 762L1447 775L422 761z" stroke="#c2c2c2" fill="#c2c2c2" style="animation-play-state:paused" ></path>
<path d="M1340 767L1447 775L1417 655z" stroke="#c41311" fill="#c41311" style="animation-play-state:paused" ></path>
<path d="M1638 365L1514 353L1517 456z" stroke="#9b9b9b" fill="#9b9b9b" style="animation-play-state:paused" ></path>
<path d="M1523 -41L1604 -149L1505 -157z" stroke="#727272" fill="#727272" style="animation-play-state:paused" ></path>
<path d="M1627 172L1617 57L1530 152z" stroke="#f6f6f6" fill="#f6f6f6" style="animation-play-state:paused" ></path>
<path d="M-259 58L-190 75L-284 -20z" stroke="#1c1c1c" fill="#1c1c1c" style="animation-play-state:paused" ></path>
<path d="M-259 58L-189 154L-190 75z" stroke="#202020" fill="#202020" style="animation-play-state:paused" ></path>
<path d="M1616 269L1627 172L1530 152z" stroke="#dddddd" fill="#dddddd" style="animation-play-state:paused" ></path>
<path d="M-284 -20L-190 75L-172 -57z" stroke="#1b1b1b" fill="#1b1b1b" style="animation-play-state:paused" ></path>
<path d="M-259 58L-280 154L-189 154z" stroke="#202020" fill="#202020" style="animation-play-state:paused" ></path>
<path d="M1622 451L1638 365L1517 456z" stroke="#909090" fill="#909090" style="animation-play-state:paused" ></path>
<path d="M1616 269L1638 365L1627 172z" stroke="#c3c3c3" fill="#c3c3c3" style="animation-play-state:paused" ></path>
<path d="M1622 451L1517 456L1536 576z" stroke="#f42322" fill="#f42322" style="animation-play-state:paused" ></path>
<path d="M1521 754L1541 666L1417 655z" stroke="#c0110f" fill="#c0110f" style="animation-play-state:paused" ></path>
<path d="M-205 535L-205 645L-74 563z" stroke="#6f6f6f" fill="#6f6f6f" style="animation-play-state:paused" ></path>
<path d="M-277 564L-205 645L-205 535z" stroke="#5c5c5c" fill="#5c5c5c" style="animation-play-state:paused" ></path>
<path d="M-280 154L-274 343L-275 255z" stroke="#252525" fill="#252525" style="animation-play-state:paused" ></path>
<path d="M-275 255L-274 343L-160 267z" stroke="#282828" fill="#282828" style="animation-play-state:paused" ></path>
<path d="M1626 579L1622 451L1536 576z" stroke="#e61e1d" fill="#e61e1d" style="animation-play-state:paused" ></path>
<path d="M-259 58L-288 -163L-280 154z" stroke="#1a1a1a" fill="#1a1a1a" style="animation-play-state:paused" ></path>
<path d="M-288 -163L-284 -20L-172 -57z" stroke="#161616" fill="#161616" style="animation-play-state:paused" ></path>
<path d="M-274 343L-283 452L-168 378z" stroke="#383838" fill="#383838" style="animation-play-state:paused" ></path>
<path d="M1627 172L1638 -39L1617 57z" stroke="#e5e5e5" fill="#e5e5e5" style="animation-play-state:paused" ></path>
<path d="M1617 57L1638 -39L1523 -41z" stroke="#b6b6b6" fill="#b6b6b6" style="animation-play-state:paused" ></path>
<path d="M1447 775L1521 754L1417 655z" stroke="#bd100e" fill="#bd100e" style="animation-play-state:paused" ></path>
<path d="M1611 648L1626 579L1536 576z" stroke="#d21816" fill="#d21816" style="animation-play-state:paused" ></path>
<path d="M1638 -39L1604 -149L1523 -41z" stroke="#8b8b8b" fill="#8b8b8b" style="animation-play-state:paused" ></path>
<path d="M-293 634L-277 564L-283 452z" stroke="#494949" fill="#494949" style="animation-play-state:paused" ></path>
<path d="M-283 452L-277 564L-205 535z" stroke="#4c4c4c" fill="#4c4c4c" style="animation-play-state:paused" ></path>
<path d="M-293 634L-192 763L-205 645z" stroke="#666666" fill="#666666" style="animation-play-state:paused" ></path>
<path d="M-205 645L-192 763L-72 677z" stroke="#7c7c7c" fill="#7c7c7c" style="animation-play-state:paused" ></path>
<path d="M1611 648L1536 576L1541 666z" stroke="#cb1513" fill="#cb1513" style="animation-play-state:paused" ></path>
<path d="M1622 451L1626 579L1638 365z" stroke="#fb2525" fill="#fb2525" style="animation-play-state:paused" ></path>
<path d="M1638 365L1626 579L1627 172z" stroke="#a0a0a0" fill="#a0a0a0" style="animation-play-state:paused" ></path>
<path d="M1627 172L1626 579L1638 -39z" stroke="#cecece" fill="#cecece" style="animation-play-state:paused" ></path>
<path d="M1644 765L1611 648L1541 666z" stroke="#b80e0c" fill="#b80e0c" style="animation-play-state:paused" ></path>
<path d="M8 -141L-288 -163L-90 -142z" stroke="#161616" fill="#161616" style="animation-play-state:paused" ></path>
<path d="M-172 -130L-288 -163L-172 -57z" stroke="#151515" fill="#151515" style="animation-play-state:paused" ></path>
<path d="M-284 -20L-288 -163L-259 58z" stroke="#171717" fill="#171717" style="animation-play-state:paused" ></path>
<path d="M-280 154L-288 -163L-274 343z" stroke="#1f1f1f" fill="#1f1f1f" style="animation-play-state:paused" ></path>
<path d="M-277 564L-293 634L-205 645z" stroke="#585858" fill="#585858" style="animation-play-state:paused" ></path>
<path d="M-274 343L-293 634L-283 452z" stroke="#3e3e3e" fill="#3e3e3e" style="animation-play-state:paused" ></path>
<path d="M-288 -163L-293 634L-274 343z" stroke="#262626" fill="#262626" style="animation-play-state:paused" ></path>
<path d="M-293 634L-281 761L-192 763z" stroke="#626262" fill="#626262" style="animation-play-state:paused" ></path>
<path d="M-192 763L-281 761L-58 762z" stroke="#797979" fill="#797979" style="animation-play-state:paused" ></path>
<path d="M1447 775L1644 765L1521 754z" stroke="#ae0a09" fill="#ae0a09" style="animation-play-state:paused" ></path>
<path d="M1521 754L1644 765L1541 666z" stroke="#b10b0a" fill="#b10b0a" style="animation-play-state:paused" ></path>
<path d="M1611 648L1644 765L1626 579z" stroke="#be110f" fill="#be110f" style="animation-play-state:paused" ></path></g>
<style type="text/css" style="animation-play-state:paused" >#bk-0.18182881928003924 path { stroke-width: 1 }</style></g></svg>